<?xml version="1.0" encoding="utf-8"?>
<!-- Generator: Adobe Illustrator 25.4.1, SVG Export Plug-In . SVG Version: 6.00 Build 0)  -->
<svg version="1.1" id="Layer_1" xmlns="http://www.w3.org/2000/svg" xmlns:xlink="http://www.w3.org/1999/xlink" x="0px" y="0px"
	 viewBox="0 0 792 612" style="enable-background:new 0 0 792 612;" xml:space="preserve">
<style type="text/css">
	.st0{fill:#FFFFFF;stroke:#FF0000;stroke-width:1.7777;stroke-miterlimit:17.7777;}
	.st1{fill:none;stroke:#FF0000;stroke-width:1.7777;stroke-miterlimit:7.1111;}
	.st2{fill:none;stroke:#000000;stroke-miterlimit:10;}
</style>
<path id="path11" class="st0" d="M75.5,194.7v16.8H59.6c-22.9,0-41.6,18.8-41.6,41.7v105.9c0,22.9,18.7,41.6,41.6,41.6h15.9v16.9
	c0,22.9,18.7,41.6,41.6,41.6h174.4h16.1h367.2c22.9,0,41.6-18.7,41.6-41.6v-16.8h15.9c22.9,0,41.6-18.7,41.6-41.6V253.3
	c0-22.9-18.7-41.6-41.6-41.6h-15.9v-16.8c0-22.9-18.7-41.6-41.6-41.6H307.6h-16.1H117.2C94.3,153.1,75.5,171.9,75.5,194.7
	L75.5,194.7z"/>
<path id="path7" class="st0" d="M57.9,272v21.2c-0.1,0-0.1,0-0.1,0c-7.1,0-12.9,5.7-12.9,12.9c0,7.1,5.9,12.9,12.9,12.9
	c0.1,0,0.1,0,0.3,0v21.2c0,3.7,3.1,6.7,6.7,6.7h2.5c3.7,0,6.7-3.1,6.7-6.7V272c0-3.7-3.1-6.7-6.7-6.7h-2.5
	C60.9,265.3,57.9,268.3,57.9,272z"/>
<path id="path9" class="st0" d="M734.1,340.3v-21.2c0.1,0,0.1,0,0.3,0c7.1,0,12.9-5.7,12.9-12.9c0-7.1-5.7-12.9-12.9-12.9
	c-0.1,0-0.1,0-0.3,0V272c0-3.7-3.1-6.7-6.7-6.7h-2.5c-3.7,0-6.7,3.1-6.7,6.7v68.3c0,3.7,3.1,6.7,6.7,6.7h2.5
	C731.1,346.9,734.1,343.9,734.1,340.3z"/>
<g id="g19">
	<line id="line13" class="st1" x1="396" y1="458.3" x2="396" y2="455.3"/>
	<line id="line15" class="st1" x1="396" y1="449.1" x2="396" y2="159.1"/>
	<line id="line17" class="st1" x1="396" y1="155.9" x2="396" y2="152.9"/>
</g>
<g id="qyCBfL.tif">
	
		<image style="overflow:visible;" width="611" height="594" xlink:href="EB0413C8DF30657C.png"  transform="matrix(1.803046e-04 0.2997 -0.4276 2.571850e-04 675.4396 205.2548)">
	</image>
</g>
<g>
	<path class="st2" d="M136.6,391.6c0-0.5,0.2-0.8,0.6-1.1c0.4-0.3,0.8-0.4,1.2-0.4c0.4,0,0.9,0.2,1.2,0.4c0.4,0.3,0.6,0.7,0.6,1.2
		c0,1.4,0.1,2.7,0.3,4.1c0.3,0,0.7,0,0.9,0c0.3,0,0.6,0,0.9,0.1c2.8,0.3,5.6,1.1,8.4,2.4c2.8,1.3,5.3,2.8,7.7,4.6
		c2.3,1.8,4.4,3.7,6.2,5.7c1.8,2,3.1,3.9,3.9,5.7c0.8,1.8,1.1,3.4,0.8,4.7c-0.3,1.3-1.2,2.2-2.9,2.5c-2.2,0.5-4.7,0.4-7.4-0.4
		c-2.7-0.8-5.4-2.1-8-3.9c-2.6-1.8-5.1-3.9-7.3-6.5c-2.3-2.6-4-5.4-5.3-8.4c-1.1,0.2-2.1,0.5-2.8,0.8c-0.8,0.3-1.4,0.8-1.7,1.3
		c-0.3,0.6-0.5,1.3-0.4,2.2c0.1,0.9,0.5,2,1.2,3.4c0.9,1.8,1.2,3.2,0.9,4.2c-0.3,1-0.9,1.5-1.8,1.5c-0.9,0-2-0.6-3.3-1.8
		c-1.3-1.2-2.4-3.1-3.5-5.7c-1.1-2.7-2.8-4.8-5.2-6.4c-2.3-1.6-4.8-2.6-7.3-3.1c-2.5-0.5-4.8-0.3-6.9,0.4c-2.1,0.8-3.4,2.2-4,4.3
		c-0.1,0.6-0.2,1.1-0.3,1.7c-0.1,0.6-0.1,1.2-0.1,1.8l0.4,0.2c4.6,2,9.5,3.9,14.6,5.6c5.1,1.8,10.3,3.4,15.6,4.9
		c5.3,1.5,10.5,2.8,15.7,4c5.2,1.2,10,2.1,14.6,2.9c2,0.4,3.7,0.8,5,1.4c1.3,0.6,2.2,1.1,2.6,1.6c0.4,0.5,0.4,0.9-0.1,1.3
		c-0.5,0.3-1.6,0.4-3.2,0.2c-7.4-0.8-14.2-1.7-20.6-3c-6.3-1.2-12.2-2.5-17.5-3.9c-5.3-1.4-10.1-2.8-14.4-4.2
		c-4.2-1.4-7.9-2.6-11.1-3.7c0.8,1.8,1.9,3.5,3.3,5.1c1.3,1.6,2.9,3,4.6,4.2c1.7,1.2,3.5,2.2,5.5,2.9c2,0.7,3.9,1.1,5.9,1.2
		c-2.1,1.6-4.7,2.4-7.7,2.3c-3-0.1-5.9-0.9-8.8-2.3c-2.9-1.4-5.5-3.3-7.9-5.8c-2.4-2.5-4.1-5.3-5-8.4c-0.7-2.3-1.1-4.5-1.1-6.8
		c0-2.3,0.3-4.4,1.1-6.3c0.8-1.9,2-3.6,3.7-5c1.7-1.4,3.8-2.4,6.5-3c2.4-0.5,4.7-0.7,6.7-0.5c2.1,0.2,3.9,0.6,5.6,1.2
		c1.7,0.6,3.1,1.3,4.4,2.2c1.3,0.9,2.3,1.7,3.2,2.4c0.9,0.8,1.5,1.5,2,2.1c0.4,0.6,0.7,0.9,0.8,1c0,0,0.1-0.3,0.4-0.7
		c0.2-0.5,0.7-1,1.3-1.5c0.7-0.6,1.6-1.1,2.7-1.6c1.2-0.5,2.7-0.9,4.7-1.1c-0.1-0.7-0.2-1.4-0.2-2.1
		C136.5,393.1,136.6,392.4,136.6,391.6z M160.2,415.4c0.7-0.3,1.1-0.8,1.1-1.5c0-0.7-0.2-1.5-0.8-2.4c-0.6-0.9-1.4-1.8-2.4-2.8
		c-1.1-1-2.4-1.9-3.9-2.8c-1.6-0.9-3.3-1.6-5.2-2.3c-1.9-0.7-4.1-1.1-6.4-1.4c1.2,2.5,2.8,4.7,4.6,6.5c1.8,1.8,3.7,3.2,5.5,4.3
		c1.8,1.1,3.5,1.8,4.9,2.2C158.9,415.5,159.8,415.6,160.2,415.4z"/>
	<path class="st2" d="M147.5,375.2c-1-0.5-1.7-0.9-2.1-1.3c-0.4-0.4-0.5-0.8-0.4-1c0.1-0.3,0.5-0.4,1.1-0.4s1.5,0.2,2.6,0.6
		c1.1,0.4,2.7,1.1,4.7,2.1c2,1,4,2.2,6,3.5c2,1.3,3.7,2.6,5.2,3.9c1.5,1.3,2.2,2.5,2.2,3.5c0,0.8-1.1,1.2-3.3,1.3
		c-2.2,0.1-4.9-0.1-8.1-0.7c1.7,0.8,3.3,1.7,4.8,2.6c1.6,0.9,2.9,1.8,4,2.6c1.1,0.8,1.9,1.6,2.5,2.4c0.6,0.7,0.6,1.3,0.2,1.8
		c-0.5,0.6-1.6,1-3.5,1.1c-1.8,0.2-4,0.1-6.5-0.1c-2.5-0.2-5.3-0.7-8.2-1.3c-3-0.7-5.9-1.5-8.7-2.5c-2.6-0.9-4.9-1.9-7.1-3.1
		c-2.2-1.2-4.1-2.4-5.5-3.6c-1.5-1.3-2.5-2.6-3.2-3.9c-0.6-1.3-0.6-2.6,0.1-3.8c0.6-1.1,1.7-1.8,3.2-2.1c1.5-0.4,2.9-0.4,4.3-0.2
		c1.4,0.2,2.5,0.7,3.4,1.4c0.9,0.7,1.1,1.5,0.6,2.5c-1-0.1-1.8-0.1-2.6,0c-0.8,0.1-1.3,0.4-1.6,0.8c-0.3,0.6-0.3,1.3,0.2,2
		c0.4,0.7,1.1,1.4,2.1,2.2c0.9,0.7,2.1,1.5,3.4,2.1c1.3,0.7,2.8,1.3,4.3,1.9c1.4,0.6,2.9,1,4.5,1.4s3,0.7,4.4,0.9
		c1.4,0.2,2.6,0.3,3.5,0.3c1,0,1.6-0.2,1.9-0.5c0.3-0.4,0.1-0.8-0.5-1.5c-0.6-0.6-1.5-1.3-2.7-2.1c-1.2-0.8-2.6-1.6-4.2-2.4
		c-1.6-0.8-3.3-1.6-4.9-2.4c-0.6-0.2-1.1-0.5-1.7-0.7c-0.6-0.2-1.1-0.5-1.7-0.8c-0.2-0.1-0.3-0.3-0.4-0.7c-0.1-0.3-0.1-0.7,0-1.1
		c0.1-0.4,0.2-0.7,0.4-1c0.2-0.3,0.3-0.4,0.5-0.4c1.3,0.4,2.8,0.9,4.3,1.3c1.6,0.5,3.1,0.9,4.5,1.2c1.4,0.3,2.7,0.6,3.7,0.7
		c1.1,0.2,1.8,0.2,2.1,0c0.3-0.2,0.3-0.6-0.1-1.1c-0.4-0.6-1-1.2-1.8-1.9c-0.8-0.7-1.8-1.4-2.8-2.1
		C149.6,376.2,148.5,375.6,147.5,375.2z"/>
	<path class="st2" d="M147.5,359.8c-1-0.5-1.7-0.9-2.1-1.3c-0.4-0.4-0.5-0.8-0.4-1c0.1-0.3,0.5-0.4,1.1-0.4s1.5,0.2,2.6,0.6
		c1.1,0.4,2.7,1.1,4.7,2.1c2,1,4,2.2,6,3.5c2,1.3,3.7,2.6,5.2,3.9c1.5,1.3,2.2,2.5,2.2,3.5c0,0.9-0.9,1.5-2.8,1.8
		c-1.9,0.3-4.3,0.2-7.4-0.2c-3.1-0.5-6.7-1.4-10.8-2.7c-4.1-1.3-8.3-3.2-12.8-5.5c0.1,0.5,0.2,1,0.1,1.6c-0.1,0.5-0.2,1.1-0.4,1.6
		c2.3,0.7,4.9,1.5,7.8,2.5c2.9,1,5.7,2.1,8.3,3.3c1.3,0.6,2.1,1.1,2.4,1.6c0.3,0.4,0.3,0.8,0.1,1c-0.3,0.2-0.8,0.3-1.4,0.3
		c-0.7,0-1.4-0.3-2.3-0.7c-2.9-1.4-5.7-2.6-8.5-3.5c-2.8-1-5.3-1.8-7.4-2.4c-1,1.1-2.4,1.7-4.2,1.8c-1.8,0.1-3.5,0-5.1-0.5
		c-1.6-0.5-2.9-1.1-3.9-2c-1-0.9-1.2-1.7-0.7-2.5c0.3-0.6,0.9-1,1.6-1.3c0.7-0.2,1.5-0.4,2.3-0.4c0.9,0,1.8,0.1,2.7,0.3
		c1,0.2,1.9,0.4,2.8,0.7c0.5-0.2,0.8-0.5,0.8-0.9c0.1-0.4,0.1-0.8-0.1-1.2c-0.1-0.4-0.3-0.8-0.6-1.2c-0.3-0.4-0.5-0.7-0.7-1
		c-0.1-0.1,0-0.3,0.2-0.5c0.2-0.2,0.5-0.5,0.8-0.7c0.3-0.2,0.7-0.4,1.1-0.5c0.4-0.1,0.7-0.1,0.9,0c1,0.6,2.2,1.2,3.8,1.8
		c1.6,0.6,3.2,1.3,5,1.9c1.8,0.6,3.6,1.2,5.4,1.7c1.8,0.5,3.5,1,5.1,1.3c1.6,0.4,3,0.6,4.1,0.7c1.2,0.1,2,0.1,2.4-0.2
		c0.3-0.2,0.3-0.6-0.1-1.1c-0.4-0.6-1-1.2-1.8-1.9c-0.8-0.7-1.8-1.4-2.8-2.1C149.6,360.9,148.5,360.3,147.5,359.8z"/>
	<path class="st2" d="M147.5,343.2c-1-0.4-1.8-0.8-2.2-1.2c-0.4-0.4-0.6-0.8-0.5-1c0.1-0.3,0.5-0.4,1.2-0.4c0.7,0,1.6,0.2,2.7,0.6
		c1.2,0.4,2.3,1,3.1,1.6c0.8,0.6,1.5,1.2,1.9,1.9c0.4,0.7,0.7,1.4,0.7,2c0,0.7-0.1,1.3-0.5,1.8c1.8,0.7,3.5,1.4,5.1,2.3
		c1.6,0.8,3,1.7,4.2,2.6c1.2,0.9,2.1,1.8,2.6,2.7c0.6,0.9,0.8,1.8,0.6,2.7c-0.2,1-1.4,1.6-3.6,1.9c-2.2,0.3-5,0.3-8.5,0.1
		c-3.4-0.3-7.3-0.8-11.7-1.5c-4.3-0.8-8.8-1.7-13.2-2.9c-3-0.8-6-1.6-8.9-2.6c-2.9-1-5.7-2-8.3-3c-2.6-1.1-5-2.1-7.1-3.2
		c-2.1-1.1-3.8-2.2-5.1-3.2c-1.3-1-2.1-2-2.4-3c-0.3-0.9-0.1-1.8,0.8-2.5c1.2-1,3.5-1.2,6.6-0.6c3.2,0.6,6.9,1.8,11.2,3.5
		c4.3,1.7,8.9,3.8,14,6.3c5,2.5,10,5.1,15,7.9c3.5,0.4,6.2,0.6,8.1,0.4c1.9-0.2,3-0.6,3.3-1.2c0.4-0.9,0.1-1.7-1-2.6
		c-1.1-0.9-2.3-1.6-3.6-2.1c-1.4,0.7-3.3,1.1-5.5,1c-2.2,0-4.3-0.3-6.3-0.8c-2-0.5-3.6-1.1-4.9-1.9c-1.3-0.8-1.7-1.5-1.2-2.2
		c0.3-0.6,1-1,2-1.2c1-0.2,2.2-0.3,3.6-0.2c1.4,0.1,3,0.3,4.7,0.7c1.7,0.3,3.5,0.8,5.3,1.3c0.6-0.6,0.8-1.2,0.4-1.9
		C149.8,344.4,148.9,343.8,147.5,343.2z M130.3,353.1c1.5,0.4,3,0.8,4.4,1.1c1.4,0.3,2.8,0.6,4.2,0.8c-3-1.4-6-2.9-9.1-4.3
		c-3.1-1.5-6.1-2.7-9-3.9c-2.9-1.1-5.6-2-8.2-2.7c-2.6-0.7-4.8-1-6.8-1c0.3,0.7,1.1,1.5,2.5,2.3c1.4,0.8,3.2,1.7,5.3,2.5
		c2.2,0.9,4.7,1.8,7.6,2.7C124,351.4,127.1,352.3,130.3,353.1z"/>
	<path class="st2" d="M147.5,332.3c-1-0.5-1.7-0.9-2.1-1.4c-0.4-0.4-0.5-0.8-0.4-1c0.1-0.3,0.5-0.4,1.1-0.4s1.5,0.2,2.6,0.6
		c1.1,0.4,2.7,1.1,4.7,2.1c2,1,4,2.2,6,3.5c2,1.3,3.7,2.6,5.2,3.9c1.5,1.3,2.2,2.5,2.2,3.5c0,0.7-0.6,1.2-1.9,1.4
		c-1.3,0.3-3,0.4-5.1,0.3c-2.1-0.1-4.6-0.3-7.3-0.7c-2.7-0.4-5.5-1-8.4-1.7c-2.9-0.7-5.8-1.6-8.6-2.7c-2.9-1.1-5.5-2.3-7.8-3.6
		c-0.6-0.4-0.8-0.8-0.8-1.3c0-0.5,0.2-1,0.5-1.4c0.3-0.4,0.7-0.8,1.2-1c0.5-0.2,0.9-0.2,1.2,0c0.6,0.4,1.4,0.8,2.2,1.3
		c0.9,0.5,1.8,1,2.8,1.5c1,0.5,2.1,1,3.2,1.4c1.1,0.5,2.2,0.8,3.2,1.2c1.6,0.5,3.2,0.9,4.8,1.2c1.6,0.3,3,0.6,4.3,0.7
		c1.3,0.1,2.4,0.1,3.3,0c0.9-0.1,1.4-0.3,1.7-0.7c0.1-0.3,0-0.7-0.4-1.3c-0.4-0.6-1-1.2-1.8-1.8c-0.8-0.7-1.6-1.3-2.6-2
		C149.5,333.3,148.5,332.7,147.5,332.3z M120.3,328c1.4,0.8,2.2,1.6,2.5,2.5c0.3,0.9,0,1.6-0.9,2.2c-0.9,0.5-2.1,0.7-3.7,0.5
		c-1.6-0.2-3-0.6-4.4-1.4c-1.4-0.8-2.2-1.6-2.5-2.5c-0.3-0.9,0-1.6,0.9-2.2c0.9-0.5,2.1-0.7,3.7-0.5
		C117.4,326.8,118.9,327.2,120.3,328z"/>
	<path class="st2" d="M147.5,314.6c-1-0.4-1.8-0.8-2.2-1.2c-0.4-0.4-0.6-0.7-0.5-1c0.1-0.3,0.5-0.4,1.2-0.4c0.7,0,1.6,0.1,2.7,0.5
		c0.8,0.2,1.9,0.6,3.4,1.2c1.5,0.6,3.1,1.3,4.8,2.1c1.7,0.8,3.3,1.8,4.9,2.8c1.6,1.1,2.9,2.2,3.9,3.4s1.7,2.5,1.9,3.8
		c0.2,1.3-0.3,2.7-1.4,4.1c-1,1.2-2.5,2-4.6,2.4c-2.1,0.5-4.5,0.7-7.2,0.6c-2.7-0.1-5.5-0.4-8.5-1c-3-0.6-5.8-1.3-8.5-2.2
		c-2.6-0.9-4.9-1.9-7-3c-2.1-1.2-3.7-2.4-4.9-3.6c-1.2-1.3-1.8-2.5-1.9-3.8c-0.1-1.3,0.6-2.5,2.1-3.6c1-0.8,2.4-1.4,4-1.8
		c1.6-0.4,3.3-0.4,5.2-0.1c1.8,0.3,3.6,0.9,5.4,1.8c1.8,0.9,3.4,2.3,4.9,4c0.6,0.8,1.1,1.5,1.3,2.3c0.2,0.8,0.4,1.6,0.4,2.3
		c0,0.7,0,1.4-0.2,2c-0.1,0.6-0.3,1.1-0.4,1.6c1.1,0.1,2.3,0.2,3.6,0.4c1.3,0.1,2.5,0.2,3.7,0.2c1.2,0,2.2-0.1,3.2-0.3
		c0.9-0.2,1.6-0.5,2-1c1-1,1.1-2.2,0.5-3.5c-0.7-1.3-1.7-2.5-3-3.7c-1.3-1.2-2.8-2.2-4.5-3.2C149.9,315.7,148.5,315,147.5,314.6z
		 M132.1,319c-0.6,0.5-0.8,1.1-0.5,1.8c0.3,0.7,0.9,1.5,1.9,2.3c1,0.8,2.2,1.5,3.8,2.2c1.6,0.7,3.3,1.2,5.3,1.6
		c0.1-0.4,0.1-1,0.1-1.8c0-0.8-0.4-1.7-1.1-2.9c-0.8-1.1-1.6-2-2.5-2.6c-0.9-0.6-1.8-1-2.7-1.2c-0.9-0.2-1.7-0.3-2.5-0.1
		C133.1,318.4,132.5,318.6,132.1,319z"/>
	<path class="st2" d="M107.9,255.1c-1.7,0.7-3,1.5-4,2.6c-1,1.1-1.8,2.2-2.2,3.6c-0.4,1.3-0.6,2.8-0.6,4.3c0.1,1.6,0.3,3.2,0.7,4.8
		c1-0.5,2-0.5,3.2-0.1c4.9,1.7,9.8,3.5,14.8,5.2c5,1.7,9.9,3.3,14.8,4.8c4.9,1.5,9.8,2.9,14.7,4.1c4.9,1.2,9.6,2.2,14.1,3
		c1.9,0.4,3.6,0.8,4.9,1.4c1.3,0.6,2.2,1.1,2.7,1.6c0.5,0.5,0.5,0.9,0,1.3c-0.5,0.3-1.6,0.4-3.2,0.2c-7.3-0.7-14.1-1.7-20.5-2.9
		c-6.3-1.2-12.2-2.5-17.4-3.8c-5.3-1.4-10-2.7-14.2-4.1c-4.2-1.4-7.9-2.6-11-3.8c1.2,2.3,2.7,4.6,4.3,6.7c1.7,2.1,3.4,4,5.1,5.7
		c1.8,1.7,3.5,3,5.3,3.9c1.8,1,3.3,1.4,4.7,1.4c-3.7,1.1-7.1,1.4-10.2,0.8c-3.1-0.6-5.9-1.7-8.3-3.4c-2.4-1.7-4.5-3.8-6.2-6.3
		c-1.7-2.5-3-5.2-3.9-8c-0.9-2.8-1.3-5.6-1.3-8.4c0-2.8,0.5-5.3,1.5-7.5c1-2.2,2.5-4,4.5-5.3C102.2,255.7,104.8,255,107.9,255.1z"/>
	<path class="st2" d="M147.5,261.5c-1-0.5-1.7-0.9-2.1-1.3c-0.4-0.4-0.5-0.8-0.4-1c0.1-0.3,0.5-0.4,1.1-0.4s1.5,0.2,2.6,0.6
		c1.1,0.4,2.7,1.1,4.7,2.1c2,1,4,2.2,6,3.5c2,1.3,3.7,2.6,5.2,3.9c1.5,1.3,2.2,2.5,2.2,3.5c0,0.9-0.9,1.5-2.8,1.8
		c-1.9,0.3-4.3,0.2-7.4-0.2c-3.1-0.5-6.7-1.4-10.8-2.7c-4.1-1.3-8.3-3.2-12.8-5.5c0.1,0.5,0.2,1,0.1,1.6c-0.1,0.5-0.2,1.1-0.4,1.6
		c2.3,0.7,4.9,1.5,7.8,2.5c2.9,1,5.7,2.1,8.3,3.3c1.3,0.6,2.1,1.1,2.4,1.6c0.3,0.4,0.3,0.8,0.1,1c-0.3,0.2-0.8,0.3-1.4,0.3
		c-0.7,0-1.4-0.3-2.3-0.7c-2.9-1.4-5.7-2.6-8.5-3.5c-2.8-1-5.3-1.8-7.4-2.4c-1,1.1-2.4,1.7-4.2,1.8c-1.8,0.1-3.5,0-5.1-0.5
		c-1.6-0.5-2.9-1.1-3.9-2c-1-0.9-1.2-1.7-0.7-2.5c0.3-0.6,0.9-1,1.6-1.3c0.7-0.2,1.5-0.4,2.3-0.4c0.9,0,1.8,0.1,2.7,0.3
		c1,0.2,1.9,0.4,2.8,0.7c0.5-0.2,0.8-0.5,0.8-0.9c0.1-0.4,0.1-0.8-0.1-1.2c-0.1-0.4-0.3-0.8-0.6-1.2c-0.3-0.4-0.5-0.7-0.7-1
		c-0.1-0.1,0-0.3,0.2-0.5c0.2-0.2,0.5-0.5,0.8-0.7c0.3-0.2,0.7-0.4,1.1-0.5c0.4-0.1,0.7-0.1,0.9,0c1,0.6,2.2,1.2,3.8,1.8
		c1.6,0.6,3.2,1.3,5,1.9c1.8,0.6,3.6,1.2,5.4,1.7c1.8,0.5,3.5,1,5.1,1.3c1.6,0.4,3,0.6,4.1,0.7c1.2,0.1,2,0.1,2.4-0.2
		c0.3-0.2,0.3-0.6-0.1-1.1c-0.4-0.6-1-1.2-1.8-1.9c-0.8-0.7-1.8-1.4-2.8-2.1C149.6,262.5,148.5,261.9,147.5,261.5z"/>
	<path class="st2" d="M147.5,241.2c-1-0.5-1.7-0.9-2.1-1.3c-0.4-0.4-0.5-0.8-0.4-1c0.1-0.3,0.5-0.4,1.1-0.4s1.5,0.2,2.6,0.6
		c1.1,0.4,2.7,1.1,4.7,2.1c2,1,4,2.2,6,3.5c2,1.3,3.7,2.6,5.2,3.9c1.5,1.3,2.2,2.5,2.2,3.5c0,0.8-1.1,1.2-3.3,1.3
		c-2.2,0.1-4.9-0.1-8.1-0.7c1.7,0.8,3.3,1.7,4.8,2.6c1.6,0.9,2.9,1.8,4,2.6c1.1,0.8,1.9,1.6,2.5,2.4c0.6,0.7,0.6,1.3,0.2,1.8
		c-0.5,0.6-1.6,1-3.5,1.1c-1.8,0.2-4,0.1-6.5-0.1c-2.5-0.2-5.3-0.7-8.2-1.3c-3-0.7-5.9-1.5-8.7-2.5c-2.6-0.9-4.9-1.9-7.1-3.1
		c-2.2-1.2-4.1-2.4-5.5-3.6c-1.5-1.3-2.5-2.6-3.2-3.9c-0.6-1.3-0.6-2.6,0.1-3.8c0.6-1.1,1.7-1.8,3.2-2.1c1.5-0.4,2.9-0.4,4.3-0.2
		c1.4,0.2,2.5,0.7,3.4,1.4c0.9,0.7,1.1,1.5,0.6,2.5c-1-0.1-1.8-0.1-2.6,0c-0.8,0.1-1.3,0.4-1.6,0.8c-0.3,0.6-0.3,1.3,0.2,2
		c0.4,0.7,1.1,1.4,2.1,2.2c0.9,0.7,2.1,1.5,3.4,2.1c1.3,0.7,2.8,1.3,4.3,1.9c1.4,0.6,2.9,1,4.5,1.4c1.6,0.4,3,0.7,4.4,0.9
		c1.4,0.2,2.6,0.3,3.5,0.3c1,0,1.6-0.2,1.9-0.5c0.3-0.4,0.1-0.8-0.5-1.5c-0.6-0.6-1.5-1.3-2.7-2.1c-1.2-0.8-2.6-1.6-4.2-2.4
		c-1.6-0.8-3.3-1.6-4.9-2.4c-0.6-0.2-1.1-0.5-1.7-0.7c-0.6-0.2-1.1-0.5-1.7-0.8c-0.2-0.1-0.3-0.3-0.4-0.7c-0.1-0.3-0.1-0.7,0-1.1
		c0.1-0.4,0.2-0.7,0.4-1c0.2-0.3,0.3-0.4,0.5-0.4c1.3,0.4,2.8,0.9,4.3,1.3c1.6,0.5,3.1,0.9,4.5,1.2c1.4,0.3,2.7,0.6,3.7,0.7
		c1.1,0.2,1.8,0.2,2.1,0c0.3-0.2,0.3-0.6-0.1-1.1c-0.4-0.6-1-1.2-1.8-1.9c-0.8-0.7-1.8-1.4-2.8-2.1
		C149.6,242.3,148.5,241.7,147.5,241.2z"/>
	<path class="st2" d="M147.5,230.3c-1-0.5-1.7-0.9-2.1-1.4c-0.4-0.4-0.5-0.8-0.4-1c0.1-0.3,0.5-0.4,1.1-0.4s1.5,0.2,2.6,0.6
		c1.1,0.4,2.7,1.1,4.7,2.1c2,1,4,2.2,6,3.5c2,1.3,3.7,2.6,5.2,3.9c1.5,1.3,2.2,2.5,2.2,3.5c0,0.7-0.6,1.2-1.9,1.4
		c-1.3,0.3-3,0.4-5.1,0.3c-2.1-0.1-4.6-0.3-7.3-0.7c-2.7-0.4-5.5-1-8.4-1.7c-2.9-0.7-5.8-1.6-8.6-2.7c-2.9-1.1-5.5-2.3-7.8-3.6
		c-0.6-0.4-0.8-0.8-0.8-1.3c0-0.5,0.2-1,0.5-1.4c0.3-0.4,0.7-0.8,1.2-1c0.5-0.2,0.9-0.2,1.2,0c0.6,0.4,1.4,0.8,2.2,1.3
		c0.9,0.5,1.8,1,2.8,1.5c1,0.5,2.1,1,3.2,1.4c1.1,0.5,2.2,0.8,3.2,1.2c1.6,0.5,3.2,0.9,4.8,1.2c1.6,0.3,3,0.6,4.3,0.7
		c1.3,0.1,2.4,0.1,3.3,0c0.9-0.1,1.4-0.3,1.7-0.7c0.1-0.3,0-0.7-0.4-1.3c-0.4-0.6-1-1.2-1.8-1.8c-0.8-0.7-1.6-1.3-2.6-2
		C149.5,231.3,148.5,230.7,147.5,230.3z M120.3,226c1.4,0.8,2.2,1.6,2.5,2.5c0.3,0.9,0,1.6-0.9,2.2c-0.9,0.5-2.1,0.7-3.7,0.5
		c-1.6-0.2-3-0.6-4.4-1.4c-1.4-0.8-2.2-1.6-2.5-2.5c-0.3-0.9,0-1.6,0.9-2.2c0.9-0.5,2.1-0.7,3.7-0.5
		C117.4,224.8,118.9,225.2,120.3,226z"/>
	<path class="st2" d="M166.5,229.1c0,1-1.1,1.6-3.3,1.9c-2.2,0.3-5,0.3-8.5,0.1c-3.5-0.3-7.5-0.8-11.9-1.5
		c-4.4-0.8-8.9-1.7-13.3-2.9c-3-0.8-6-1.6-8.9-2.6c-2.9-1-5.7-2-8.3-3c-2.6-1.1-5-2.1-7.1-3.2c-2.1-1.1-3.8-2.2-5.1-3.2
		c-1.3-1-2.1-2-2.4-3c-0.3-0.9-0.1-1.8,0.8-2.5c1.2-1,3.5-1.2,6.6-0.6c3.2,0.6,6.9,1.8,11.2,3.5c4.3,1.7,8.9,3.8,14,6.3
		c5,2.5,10,5.1,15,7.9c3.5,0.4,6.2,0.5,8,0.2c1.8-0.3,2.8-0.7,2.9-1.2c0.1-0.3-0.1-0.7-0.6-1.3c-0.5-0.6-1.1-1.3-2-2
		c-0.8-0.7-1.8-1.4-2.8-2.1c-1.1-0.7-2.1-1.3-3.2-1.8c-1-0.5-1.7-0.9-2.1-1.4c-0.4-0.4-0.5-0.8-0.4-1c0.1-0.3,0.5-0.4,1.1-0.4
		s1.5,0.2,2.6,0.6c1.1,0.4,2.6,1.1,4.6,2.2c2,1.1,3.9,2.3,5.9,3.6c2,1.3,3.7,2.6,5.1,4C165.8,227,166.5,228.2,166.5,229.1z
		 M130.3,223.6c1.5,0.4,3,0.8,4.4,1.1c1.4,0.3,2.8,0.6,4.2,0.8c-3-1.4-6-2.9-9.1-4.3c-3.1-1.5-6.1-2.7-9-3.9c-2.9-1.1-5.6-2-8.2-2.7
		c-2.6-0.7-4.8-1-6.8-1c0.3,0.7,1.1,1.5,2.5,2.3c1.4,0.8,3.2,1.7,5.3,2.5c2.2,0.9,4.7,1.8,7.6,2.7
		C124,221.9,127.1,222.8,130.3,223.6z"/>
	<path class="st2" d="M147.5,200.5c-1-0.4-1.8-0.8-2.2-1.2c-0.4-0.4-0.6-0.7-0.5-1c0.1-0.3,0.5-0.4,1.2-0.4c0.7,0,1.6,0.1,2.7,0.5
		c0.8,0.2,1.9,0.6,3.4,1.2c1.5,0.6,3.1,1.3,4.8,2.1c1.7,0.8,3.3,1.8,4.9,2.8c1.6,1.1,2.9,2.2,3.9,3.4s1.7,2.5,1.9,3.8
		c0.2,1.3-0.3,2.7-1.4,4.1c-1,1.2-2.5,2-4.6,2.4c-2.1,0.5-4.5,0.7-7.2,0.6c-2.7-0.1-5.5-0.4-8.5-1c-3-0.6-5.8-1.3-8.5-2.2
		c-2.6-0.9-4.9-1.9-7-3c-2.1-1.2-3.7-2.4-4.9-3.6c-1.2-1.3-1.8-2.5-1.9-3.8c-0.1-1.3,0.6-2.5,2.1-3.6c1-0.8,2.4-1.4,4-1.8
		c1.6-0.4,3.3-0.4,5.2-0.1c1.8,0.3,3.6,0.9,5.4,1.8c1.8,0.9,3.4,2.3,4.9,4c0.6,0.8,1.1,1.5,1.3,2.3c0.2,0.8,0.4,1.6,0.4,2.3
		c0,0.7,0,1.4-0.2,2c-0.1,0.6-0.3,1.1-0.4,1.6c1.1,0.1,2.3,0.2,3.6,0.4c1.3,0.1,2.5,0.2,3.7,0.2c1.2,0,2.2-0.1,3.2-0.3
		c0.9-0.2,1.6-0.5,2-1c1-1,1.1-2.2,0.5-3.5c-0.7-1.3-1.7-2.5-3-3.7c-1.3-1.2-2.8-2.2-4.5-3.2C149.9,201.6,148.5,200.9,147.5,200.5z
		 M132.1,204.9c-0.6,0.5-0.8,1.1-0.5,1.8c0.3,0.7,0.9,1.5,1.9,2.3c1,0.8,2.2,1.5,3.8,2.2c1.6,0.7,3.3,1.2,5.3,1.6
		c0.1-0.4,0.1-1,0.1-1.8s-0.4-1.7-1.1-2.9c-0.8-1.1-1.6-2-2.5-2.6c-0.9-0.6-1.8-1-2.7-1.2c-0.9-0.2-1.7-0.3-2.5-0.1
		C133.1,204.3,132.5,204.5,132.1,204.9z"/>
	<path class="st2" d="M147.5,185.2c-1-0.5-1.7-0.9-2.1-1.3c-0.4-0.4-0.5-0.8-0.4-1c0.1-0.3,0.5-0.4,1.1-0.4s1.5,0.2,2.6,0.6
		c1.1,0.4,2.7,1.1,4.7,2.1c2,1,4,2.2,6,3.5c2,1.3,3.7,2.6,5.2,3.9c1.5,1.3,2.2,2.5,2.2,3.5c0,0.9-0.9,1.5-2.8,1.8
		c-1.9,0.3-4.3,0.2-7.4-0.2c-3.1-0.5-6.7-1.4-10.8-2.7c-4.1-1.3-8.3-3.2-12.8-5.5c0.1,0.5,0.2,1,0.1,1.6c-0.1,0.5-0.2,1.1-0.4,1.6
		c2.3,0.7,4.9,1.5,7.8,2.5c2.9,1,5.7,2.1,8.3,3.3c1.3,0.6,2.1,1.1,2.4,1.6c0.3,0.4,0.3,0.8,0.1,1c-0.3,0.2-0.8,0.3-1.4,0.3
		c-0.7,0-1.4-0.3-2.3-0.7c-2.9-1.4-5.7-2.6-8.5-3.5c-2.8-1-5.3-1.8-7.4-2.4c-1,1.1-2.4,1.7-4.2,1.8c-1.8,0.1-3.5,0-5.1-0.5
		c-1.6-0.5-2.9-1.1-3.9-2c-1-0.9-1.2-1.7-0.7-2.5c0.3-0.6,0.9-1,1.6-1.3c0.7-0.2,1.5-0.4,2.3-0.4c0.9,0,1.8,0.1,2.7,0.3
		c1,0.2,1.9,0.4,2.8,0.7c0.5-0.2,0.8-0.5,0.8-0.9c0.1-0.4,0.1-0.8-0.1-1.2c-0.1-0.4-0.3-0.8-0.6-1.2c-0.3-0.4-0.5-0.7-0.7-1
		c-0.1-0.1,0-0.3,0.2-0.5c0.2-0.2,0.5-0.5,0.8-0.7c0.3-0.2,0.7-0.4,1.1-0.5c0.4-0.1,0.7-0.1,0.9,0c1,0.6,2.2,1.2,3.8,1.8
		c1.6,0.6,3.2,1.3,5,1.9c1.8,0.6,3.6,1.2,5.4,1.7c1.8,0.5,3.5,1,5.1,1.3c1.6,0.4,3,0.6,4.1,0.7c1.2,0.1,2,0.1,2.4-0.2
		c0.3-0.2,0.3-0.6-0.1-1.1c-0.4-0.6-1-1.2-1.8-1.9c-0.8-0.7-1.8-1.4-2.8-2.1C149.6,186.2,148.5,185.7,147.5,185.2z"/>
</g>
<rect x="187.6" y="266.3" transform="matrix(6.123234e-17 -1 1 6.123234e-17 13.3628 625.3627)" class="st2" width="263.6" height="79.4"/>
<g id="qyCBfL.tif_00000168094555557847391270000001279027828484845995_">
	
		<image style="overflow:visible;" width="611" height="594" xlink:href="EB0413C8DF30657D.png"  transform="matrix(1.482584e-10 -0.1395 0.1742 2.728576e-08 176.204 354.5553)">
	</image>
</g>
</svg>
