<?xml version="1.0" encoding="utf-8"?>
<!-- Generator: Adobe Illustrator 25.4.1, SVG Export Plug-In . SVG Version: 6.00 Build 0)  -->
<svg version="1.1" id="Layer_1" xmlns="http://www.w3.org/2000/svg" xmlns:xlink="http://www.w3.org/1999/xlink" x="0px" y="0px"
	 viewBox="0 0 792 612" style="enable-background:new 0 0 792 612;" xml:space="preserve">
<style type="text/css">
	.st0{fill:none;stroke:#FF0000;stroke-linecap:round;stroke-miterlimit:10;}
</style>
<g>
	<path class="st0" d="M52.1,6c0-18.4,19.7-33.2,43.9-33.2S139.9-12.4,139.9,6S120.3,39.2,96,39.2S52.1,24.4,52.1,6z"/>
	<path class="st0" d="M132.2,6c0-15.1,21.5-27.4,48.1-27.4S228.4-9.1,228.4,6s-21.5,27.4-48.1,27.4S132.2,21.1,132.2,6z"/>
	<path class="st0" d="M240.6,6c0-25.8,12.3-46.8,27.5-46.8S295.7-19.8,295.7,6s-12.3,46.8-27.5,46.8S240.6,31.8,240.6,6z"/>
	<path class="st0" d="M315.9,6c0-18.7,21.5-33.9,48-33.9c26.5,0,48,15.2,48,33.9s-21.5,33.9-48,33.9C337.4,39.9,315.9,24.7,315.9,6z
		"/>
	<path class="st0" d="M381.5,6c0-19.1,16.2-34.7,36.1-34.7S453.7-13.1,453.7,6s-16.2,34.7-36.1,34.7S381.5,25.1,381.5,6z"/>
	<path class="st0" d="M449.5,6c0-27.4,12.9-49.7,28.7-49.7C494.1-43.7,507-21.4,507,6s-12.9,49.7-28.7,49.7
		C462.4,55.7,449.5,33.4,449.5,6z"/>
	<path class="st0" d="M525.3,6c0-17.2,20.1-31.2,44.8-31.2S615-11.2,615,6s-20.1,31.2-44.8,31.2S525.3,23.2,525.3,6z"/>
	<path class="st0" d="M637,6c0-17,11.2-30.8,25.1-30.8S687.2-11,687.2,6s-11.2,30.8-25.1,30.8S637,23,637,6z"/>
	<path class="st0" d="M70.9,72.6c0-20.4,11.3-36.9,25.1-36.9s25.1,16.5,25.1,36.9s-11.3,36.9-25.1,36.9S70.9,93,70.9,72.6z"/>
	<path class="st0" d="M122.9,72.6c0-17.2,22.1-31.2,49.3-31.2s49.3,14,49.3,31.2s-22.1,31.2-49.3,31.2S122.9,89.8,122.9,72.6z"/>
	<path class="st0" d="M220.7,72.6c0-25.7,20.6-46.5,45.9-46.5s45.9,20.8,45.9,46.5s-20.6,46.5-45.9,46.5S220.7,98.3,220.7,72.6z"/>
	<path class="st0" d="M310.1,72.6c0-25,13.8-45.3,30.9-45.3s30.9,20.3,30.9,45.3S358,117.9,341,117.9S310.1,97.6,310.1,72.6z"/>
	<path class="st0" d="M372.3,72.6c0-23.5,18.6-42.6,41.5-42.6s41.5,19.1,41.5,42.6s-18.6,42.6-41.5,42.6S372.3,96.1,372.3,72.6z"/>
	<path class="st0" d="M448.5,72.6c0-25.8,14-46.7,31.4-46.7s31.4,20.9,31.4,46.7s-14,46.7-31.4,46.7S448.5,98.4,448.5,72.6z"/>
	<path class="st0" d="M529.4,72.6c0-20.5,13.3-37.1,29.7-37.1s29.7,16.6,29.7,37.1s-13.3,37.1-29.7,37.1S529.4,93.1,529.4,72.6z"/>
	<path class="st0" d="M572.9,72.6c0-15,21.4-27.2,47.9-27.2c26.4,0,47.9,12.2,47.9,27.2s-21.4,27.2-47.9,27.2
		C594.4,99.9,572.9,87.7,572.9,72.6z"/>
	<path class="st0" d="M647,72.6c0-18.7,19-33.9,42.4-33.9c23.4,0,42.4,15.2,42.4,33.9s-19,33.9-42.4,33.9
		C665.9,106.5,647,91.3,647,72.6z"/>
	<path class="st0" d="M65.1,158c0-18.3,13.8-33.1,30.9-33.1s30.9,14.8,30.9,33.1S113,191.1,96,191.1S65.1,176.3,65.1,158z"/>
	<path class="st0" d="M111.3,158c0-25.7,20.4-46.6,45.6-46.6s45.6,20.9,45.6,46.6s-20.4,46.6-45.6,46.6S111.3,183.8,111.3,158z"/>
	<path class="st0" d="M185.3,158c0-19.9,16.5-36.1,36.8-36.1s36.8,16.1,36.8,36.1s-16.5,36.1-36.8,36.1S185.3,177.9,185.3,158z"/>
	<path class="st0" d="M243.8,158c0-15.8,21.2-28.7,47.3-28.7s47.3,12.8,47.3,28.7s-21.2,28.7-47.3,28.7S243.8,173.9,243.8,158z"/>
	<path class="st0" d="M326,158c0-26.8,14.4-48.6,32.1-48.6c17.7,0,32.1,21.8,32.1,48.6s-14.4,48.6-32.1,48.6
		C340.4,206.6,326,184.9,326,158z"/>
	<path class="st0" d="M371.3,158c0-22.1,17.6-40,39.3-40c21.7,0,39.3,17.9,39.3,40s-17.6,40-39.3,40
		C388.9,198,371.3,180.1,371.3,158z"/>
	<path class="st0" d="M456.6,158c0-27.5,18.1-49.7,40.4-49.7c22.3,0,40.4,22.3,40.4,49.7s-18.1,49.7-40.4,49.7
		C474.6,207.7,456.6,185.5,456.6,158z"/>
	<path class="st0" d="M544.6,158c0-18,17.4-32.6,38.8-32.6s38.8,14.6,38.8,32.6s-17.4,32.6-38.8,32.6S544.6,176,544.6,158z"/>
	<path class="st0" d="M606.8,158c0-14.1,14.1-25.5,31.5-25.5s31.5,11.4,31.5,25.5c0,14.1-14.1,25.5-31.5,25.5S606.8,172.1,606.8,158
		z"/>
	<path class="st0" d="M57.5,235.6c0-23.7,17.2-42.9,38.5-42.9s38.5,19.2,38.5,42.9s-17.2,42.9-38.5,42.9S57.5,259.3,57.5,235.6z"/>
	<path class="st0" d="M119,235.6c0-27.6,21.5-49.9,48-49.9s48,22.4,48,49.9s-21.5,49.9-48,49.9S119,263.1,119,235.6z"/>
	<path class="st0" d="M230.9,235.6c0-15.7,14.3-28.4,31.9-28.4c17.6,0,31.9,12.7,31.9,28.4s-14.3,28.4-31.9,28.4
		C245.2,263.9,230.9,251.2,230.9,235.6z"/>
	<path class="st0" d="M296.8,235.6c0-23.5,15.7-42.6,35-42.6s35,19.1,35,42.6s-15.7,42.6-35,42.6S296.8,259.1,296.8,235.6z"/>
	<path class="st0" d="M373.3,235.6c0-16.6,18.7-30,41.7-30s41.7,13.4,41.7,30s-18.7,30-41.7,30S373.3,252.1,373.3,235.6z"/>
	<path class="st0" d="M446.7,235.6c0-25.6,13-46.3,29.1-46.3S505,210,505,235.6s-13,46.3-29.1,46.3S446.7,261.2,446.7,235.6z"/>
	<path class="st0" d="M515.7,235.6c0-14.4,20.9-26.1,46.6-26.1c25.8,0,46.6,11.7,46.6,26.1s-20.9,26.1-46.6,26.1
		C536.6,261.7,515.7,250,515.7,235.6z"/>
	<path class="st0" d="M611.1,235.6c0-21,14.5-38,32.3-38s32.3,17,32.3,38s-14.5,38-32.3,38S611.1,256.6,611.1,235.6z"/>
	<path class="st0" d="M63.4,326.6c0-26.1,14.6-47.2,32.6-47.2s32.6,21.1,32.6,47.2S114,373.8,96,373.8S63.4,352.7,63.4,326.6z"/>
	<path class="st0" d="M156.6,326.6c0-18.1,14.4-32.8,32.1-32.8s32.1,14.7,32.1,32.8c0,18.1-14.4,32.8-32.1,32.8
		S156.6,344.7,156.6,326.6z"/>
	<path class="st0" d="M240.4,326.6c0-23.3,17.2-42.1,38.3-42.1c21.2,0,38.3,18.9,38.3,42.1s-17.2,42.1-38.3,42.1
		C257.5,368.7,240.4,349.9,240.4,326.6z"/>
	<path class="st0" d="M339.9,326.6c0-19.7,12.8-35.8,28.5-35.8c15.8,0,28.5,16,28.5,35.8s-12.8,35.8-28.5,35.8
		C352.7,362.3,339.9,346.3,339.9,326.6z"/>
	<path class="st0" d="M410.7,326.6c0-18.7,16.5-33.8,36.8-33.8c20.3,0,36.8,15.1,36.8,33.8s-16.5,33.8-36.8,33.8
		C427.2,360.4,410.7,345.3,410.7,326.6z"/>
	<path class="st0" d="M505.7,326.6c0-14.7,17.2-26.7,38.4-26.7s38.4,11.9,38.4,26.7c0,14.7-17.2,26.7-38.4,26.7
		S505.7,341.3,505.7,326.6z"/>
	<path class="st0" d="M559.9,326.6c0-19.2,17.6-34.7,39.3-34.7c21.7,0,39.3,15.5,39.3,34.7s-17.6,34.7-39.3,34.7
		C577.5,361.3,559.9,345.8,559.9,326.6z"/>
	<path class="st0" d="M610.1,326.6c0-15.5,20.7-28.1,46.3-28.1s46.3,12.6,46.3,28.1c0,15.5-20.7,28.1-46.3,28.1
		S610.1,342.1,610.1,326.6z"/>
	<path class="st0" d="M52.5,399c0-25,19.5-45.2,43.5-45.2s43.5,20.2,43.5,45.2c0,25-19.5,45.2-43.5,45.2S52.5,424,52.5,399z"/>
	<path class="st0" d="M147.9,399c0-21.8,12.8-39.5,28.5-39.5s28.5,17.7,28.5,39.5c0,21.8-12.8,39.5-28.5,39.5S147.9,420.8,147.9,399
		z"/>
	<path class="st0" d="M212,399c0-21.1,22-38.2,49.1-38.2s49.1,17.1,49.1,38.2c0,21.1-22,38.2-49.1,38.2S212,420.1,212,399z"/>
	<path class="st0" d="M329.4,399c0-22.6,12.4-41,27.6-41s27.6,18.3,27.6,41c0,22.6-12.4,41-27.6,41S329.4,421.6,329.4,399z"/>
	<path class="st0" d="M386.9,399c0-14.9,18.3-27.1,40.9-27.1s40.9,12.1,40.9,27.1s-18.3,27.1-40.9,27.1S386.9,414,386.9,399z"/>
	<path class="st0" d="M467.3,399c0-25.9,17.6-46.8,39.2-46.8c21.7,0,39.2,21,39.2,46.8c0,25.9-17.6,46.8-39.2,46.8
		C484.9,445.9,467.3,424.9,467.3,399z"/>
	<path class="st0" d="M534.9,399c0-16.3,21.3-29.5,47.6-29.5c26.3,0,47.6,13.2,47.6,29.5c0,16.3-21.3,29.5-47.6,29.5
		C556.2,428.5,534.9,415.3,534.9,399z"/>
	<path class="st0" d="M588.1,399c0-15.4,20.2-27.8,45-27.8s45,12.4,45,27.8c0,15.4-20.2,27.8-45,27.8S588.1,414.4,588.1,399z"/>
	<path class="st0" d="M62.8,492.8c0-20.7,14.8-37.6,33.2-37.6s33.2,16.8,33.2,37.6c0,20.7-14.8,37.6-33.2,37.6
		S62.8,513.6,62.8,492.8z"/>
	<path class="st0" d="M139.5,492.8c0-20.6,20.3-37.4,45.3-37.4s45.3,16.7,45.3,37.4s-20.3,37.4-45.3,37.4S139.5,513.5,139.5,492.8z"
		/>
	<path class="st0" d="M237.1,492.8c0-26.7,11.4-48.3,25.5-48.3c14.1,0,25.5,21.6,25.5,48.3s-11.4,48.3-25.5,48.3
		C248.5,541.1,237.1,519.5,237.1,492.8z"/>
	<path class="st0" d="M306.3,492.8c0-24.6,14.8-44.5,33.1-44.5c18.3,0,33.1,19.9,33.1,44.5s-14.8,44.5-33.1,44.5
		C321.2,537.4,306.3,517.4,306.3,492.8z"/>
	<path class="st0" d="M364.7,492.8c0-27.6,21.4-50,47.8-50s47.8,22.4,47.8,50s-21.4,50-47.8,50S364.7,520.4,364.7,492.8z"/>
	<path class="st0" d="M449.8,492.8c0-21.4,18.7-38.7,41.7-38.7c23,0,41.7,17.3,41.7,38.7s-18.7,38.7-41.7,38.7
		C468.5,531.5,449.8,514.2,449.8,492.8z"/>
	<path class="st0" d="M523.2,492.8c0-18.5,18.6-33.5,41.6-33.5s41.6,15,41.6,33.5s-18.6,33.5-41.6,33.5S523.2,511.3,523.2,492.8z"/>
	<path class="st0" d="M609.3,492.8c0-24.7,12-44.7,26.9-44.7s26.9,20,26.9,44.7s-12,44.7-26.9,44.7S609.3,517.5,609.3,492.8z"/>
	<path class="st0" d="M69.8,561.7c0-24.6,11.7-44.6,26.2-44.6s26.2,19.9,26.2,44.6c0,24.6-11.7,44.6-26.2,44.6
		S69.8,586.3,69.8,561.7z"/>
	<path class="st0" d="M132.7,561.7c0-17.5,21.5-31.6,47.9-31.6s47.9,14.2,47.9,31.6c0,17.5-21.5,31.6-47.9,31.6
		S132.7,579.1,132.7,561.7z"/>
	<path class="st0" d="M191,561.7c0-22.3,22.3-40.4,49.7-40.4s49.7,18.1,49.7,40.4c0,22.3-22.3,40.4-49.7,40.4S191,584,191,561.7z"/>
	<path class="st0" d="M268.9,561.7c0-25.2,14.8-45.6,33.1-45.6c18.3,0,33.1,20.4,33.1,45.6s-14.8,45.6-33.1,45.6
		C283.8,607.3,268.9,586.9,268.9,561.7z"/>
	<path class="st0" d="M356.8,561.7c0-25,13.5-45.3,30.1-45.3c16.6,0,30.1,20.3,30.1,45.3c0,25-13.5,45.3-30.1,45.3
		C370.2,607,356.8,586.7,356.8,561.7z"/>
	<path class="st0" d="M396.1,561.7c0-26.2,19.5-47.4,43.7-47.4s43.7,21.2,43.7,47.4c0,26.2-19.5,47.4-43.7,47.4
		S396.1,587.9,396.1,561.7z"/>
	<path class="st0" d="M490.8,561.7c0-21.1,14.9-38.1,33.2-38.1s33.2,17.1,33.2,38.1c0,21.1-14.9,38.1-33.2,38.1
		S490.8,582.7,490.8,561.7z"/>
	<path class="st0" d="M572.1,561.7c0-14.1,22.3-25.5,49.7-25.5c27.5,0,49.7,11.4,49.7,25.5c0,14.1-22.3,25.5-49.7,25.5
		C594.3,587.2,572.1,575.8,572.1,561.7z"/>
</g>
</svg>
